# xmcd
#
# Track frame offsets:
#	182
#	27507
#	48242
#	79862
#	99890
#	119547
#	143757
#
# Disc length: 2236 seconds
#
# Revision: 0
# Processed by: cddbd v1.4b42PL0 Copyright (c) Steve Scherf et al.
# Submitted via: EZCDDA 4.3.3.2
#
DISCID=5408ba07
DTITLE=Eric Gale - Blue Horizon
DYEAR=1900
DGENRE=
TTITLE0=Blue Horizon
TTITLE1=Wait Until the City Sleeps
TTITLE2=When Tokyo
TTITLE3=Mako D'Amour
TTITLE4=Clock-A-Pa
TTITLE5=Call Me at the Same Number
TTITLE6=97th and Columbus
EXTD=
EXTT0=
EXTT1=
EXTT2=
EXTT3=
EXTT4=
EXTT5=
EXTT6=
PLAYORDER=
